<svg width="164" height="164" viewBox="0 0 164 164" fill="none" xmlns="http://www.w3.org/2000/svg">
<g clip-path="url(#clip0_2043_501)">
<path d="M16.0824 30.0664C16.4382 30.065 16.7941 30.0635 17.1607 30.0621C17.5548 30.0621 17.949 30.0622 18.3551 30.0622C18.9795 30.0605 18.9795 30.0605 19.6164 30.0587C20.7757 30.0555 21.9349 30.0543 23.0941 30.0534C24.3429 30.0522 25.5916 30.0491 26.8404 30.0463C29.8583 30.04 32.8761 30.0368 35.894 30.0339C37.3145 30.0325 38.7349 30.0308 40.1554 30.0291C44.8764 30.0237 49.5973 30.019 54.3182 30.0167C55.5439 30.0161 56.7695 30.0155 57.9951 30.0148C58.2997 30.0147 58.6044 30.0145 58.9182 30.0144C63.8536 30.0117 68.789 30.0036 73.7244 29.9932C78.7893 29.9826 83.8542 29.9768 88.9191 29.9758C91.7638 29.9751 94.6084 29.9723 97.453 29.9641C99.8756 29.9572 102.298 29.9546 104.721 29.9577C105.957 29.9592 107.193 29.9585 108.429 29.9523C109.769 29.9457 111.109 29.9489 112.449 29.9532C112.84 29.9496 113.231 29.9461 113.633 29.9425C115.757 29.9587 117.124 30.0902 118.836 31.3906C120.08 32.9624 120.481 34.1507 120.469 36.1202C120.468 36.4052 120.467 36.6901 120.466 36.9836C120.463 37.2784 120.46 37.5732 120.458 37.877C120.456 38.1767 120.455 38.4765 120.453 38.7853C120.449 39.5236 120.444 40.2618 120.438 41C120.699 40.9972 120.961 40.9943 121.231 40.9914C123.709 40.9656 126.187 40.9462 128.666 40.9336C129.94 40.927 131.214 40.9179 132.488 40.9034C133.719 40.8893 134.951 40.8817 136.182 40.8784C136.65 40.8761 137.118 40.8715 137.585 40.8645C141.76 40.8049 144.917 41.5596 147.984 44.5234C150.368 47.3287 150.65 50.7937 150.706 54.3305C150.521 55.5921 150.169 56.131 149.266 57.0156C149.054 57.0156 148.843 57.0156 148.625 57.0156C149.116 59.3644 149.636 61.7057 150.175 64.044C150.355 64.8395 150.529 65.6364 150.696 66.4347C151.346 70.5899 151.346 70.5899 153.276 74.1776C154.423 74.9225 155.626 75.0813 156.953 75.2734C160.389 77.0218 162.344 79.7273 163.68 83.2813C163.94 84.1782 164.042 84.979 164.049 85.9118C164.052 86.1786 164.055 86.4453 164.058 86.7201C164.06 87.155 164.06 87.155 164.062 87.5986C164.064 87.906 164.067 88.2134 164.07 88.5302C164.078 89.5466 164.083 90.5629 164.088 91.5794C164.09 92.1 164.09 92.1 164.093 92.6311C164.101 94.4665 164.108 96.3018 164.112 98.1372C164.116 99.6578 164.125 101.178 164.138 102.699C164.154 104.534 164.162 106.369 164.164 108.205C164.167 108.905 164.171 109.605 164.179 110.304C164.189 111.282 164.189 112.26 164.187 113.237C164.195 113.672 164.195 113.672 164.203 114.116C164.183 116.072 164.183 116.072 163.252 117.095C162.171 117.677 161.435 117.701 160.21 117.68C159.589 117.674 159.589 117.674 158.956 117.667C158.522 117.657 158.088 117.646 157.654 117.635C157.214 117.628 156.773 117.622 156.333 117.617C155.258 117.602 154.184 117.581 153.109 117.555C153.115 117.739 153.121 117.924 153.127 118.114C153.207 122.549 151.372 126.299 148.365 129.506C144.808 132.845 140.723 134.092 135.93 134.042C131.339 133.882 127.466 131.944 124.315 128.62C121.492 125.205 120.438 121.936 120.438 117.555C101.411 117.555 82.3844 117.555 62.7812 117.555C62.7812 118.4 62.7812 119.246 62.7812 120.117C62.0145 124.332 60.0511 127.983 56.6953 130.688C52.3744 133.658 48.4032 134.36 43.2422 133.891C38.8621 133.052 35.1981 130.46 32.6506 126.873C31.1629 124.495 30.0522 121.902 30.0894 119.076C30.0922 118.79 30.0951 118.505 30.0981 118.21C30.1018 117.994 30.1055 117.778 30.1094 117.555C29.921 117.557 29.7327 117.559 29.5386 117.561C27.5744 117.582 25.6103 117.597 23.646 117.607C22.9134 117.612 22.1808 117.619 21.4483 117.627C20.3939 117.639 19.3397 117.644 18.2853 117.649C17.7958 117.656 17.7958 117.656 17.2963 117.664C15.3133 117.664 13.8039 117.519 12.2857 116.102C11.2296 114.721 10.8499 114.082 10.8593 112.357C10.8604 112.027 10.8614 111.696 10.8625 111.356C10.8665 110.837 10.8665 110.837 10.8706 110.308C10.8721 109.959 10.8735 109.611 10.875 109.252C10.8788 108.389 10.884 107.527 10.8906 106.664C10.6176 106.671 10.3446 106.677 10.0633 106.684C9.04553 106.706 8.02785 106.722 7.00989 106.734C6.57025 106.741 6.13064 106.75 5.6911 106.761C5.0575 106.776 4.4237 106.783 3.78995 106.789C3.40917 106.796 3.0284 106.803 2.63609 106.81C1.39747 106.635 0.875961 106.259 0 105.383C-0.212708 104.672 -0.212708 104.672 -0.200195 103.941C-0.204324 103.7 -0.208453 103.459 -0.212708 103.211C0.110358 102.131 0.660543 101.82 1.60156 101.219C2.50958 101.095 3.29207 101.043 4.19847 101.053C4.45544 101.051 4.71241 101.048 4.97717 101.046C5.824 101.041 6.67049 101.044 7.51733 101.049C8.10727 101.048 8.69721 101.046 9.28715 101.045C10.5225 101.043 11.7578 101.046 12.9931 101.052C14.5755 101.059 16.1575 101.055 17.7398 101.047C18.9577 101.043 20.1755 101.044 21.3934 101.047C21.9768 101.048 22.5602 101.047 23.1435 101.044C23.9594 101.041 24.7748 101.046 25.5906 101.053C25.8309 101.05 26.0712 101.048 26.3188 101.045C27.4887 101.064 28.1419 101.19 29.1373 101.825C29.8784 102.593 30.0072 102.891 29.9893 103.941C29.9955 104.303 29.9955 104.303 30.0018 104.672C29.6769 105.758 29.1388 106.065 28.1875 106.664C27.2287 106.774 26.3934 106.814 25.4386 106.789C25.0474 106.786 25.0474 106.786 24.6483 106.784C23.8192 106.777 22.9906 106.76 22.1616 106.744C21.598 106.738 21.0343 106.732 20.4706 106.727C19.0921 106.714 17.7145 106.689 16.3359 106.664C16.3359 108.461 16.3359 110.258 16.3359 112.109C21.1983 112.109 26.0606 112.109 31.0703 112.109C31.176 111.581 31.2817 111.052 31.3906 110.508C33.4815 106.453 36.5963 103.42 40.9399 101.919C45.4845 100.513 49.9142 100.98 54.1829 102.972C57.7863 104.896 60.1729 107.747 61.8203 111.469C61.8203 111.68 61.8203 111.892 61.8203 112.109C79.367 112.109 96.9137 112.109 114.992 112.109C114.992 105.344 114.992 98.5794 114.992 91.6094C116.273 90.3281 116.273 90.3281 116.914 90.158C118.092 90.1764 118.656 90.1895 119.617 90.9287C120.457 92.0713 120.477 92.734 120.474 94.1458C120.474 94.5433 120.474 94.9409 120.474 95.3505C120.472 95.7859 120.47 96.2214 120.469 96.6568C120.468 97.1011 120.468 97.5455 120.467 97.9898C120.466 99.1599 120.463 100.33 120.459 101.5C120.456 102.694 120.455 103.888 120.453 105.081C120.45 107.424 120.444 109.767 120.438 112.109C120.755 112.109 121.072 112.109 121.398 112.109C121.451 111.812 121.504 111.515 121.559 111.209C122.505 107.938 125.429 105.059 128.255 103.302C132.409 101.087 137.018 100.453 141.558 101.759C146.073 103.361 149.666 106.144 151.828 110.508C151.934 111.036 152.04 111.565 152.148 112.109C154.262 112.109 156.377 112.109 158.555 112.109C158.555 108.515 158.555 104.922 158.555 101.219C157.286 101.219 156.018 101.219 154.711 101.219C152.305 100.765 150.357 99.7168 148.945 97.6953C147.524 95.4314 147.545 92.961 147.524 90.3682C147.521 90.0442 147.517 89.7203 147.514 89.3866C147.549 86.4608 147.549 86.4608 148.625 85.2031C149.502 84.7648 150.24 84.8135 151.22 84.7815C151.802 84.7613 151.802 84.7613 152.396 84.7408C152.803 84.7282 153.21 84.7156 153.63 84.7026C154.244 84.6819 154.244 84.6819 154.871 84.6607C155.885 84.6267 156.9 84.594 157.914 84.5625C156.662 82.2754 155.504 80.6647 152.911 79.8716C151.254 79.4039 149.715 79.2962 148.001 79.299C147.701 79.2957 147.4 79.2925 147.091 79.2891C146.11 79.2795 145.129 79.2765 144.148 79.2736C143.463 79.2682 142.778 79.2624 142.094 79.2562C140.3 79.241 138.507 79.2314 136.713 79.223C134.879 79.2135 133.046 79.1986 131.212 79.1841C127.62 79.1566 124.029 79.135 120.438 79.1172C120.443 79.3599 120.448 79.6027 120.453 79.8528C120.457 80.1707 120.461 80.4887 120.465 80.8164C120.47 81.1318 120.475 81.4472 120.481 81.7721C120.428 82.8322 120.171 83.4405 119.477 84.2422C118.474 84.7434 117.359 84.7858 116.273 84.5625C115.851 84.1397 115.428 83.7169 114.992 83.2813C114.992 67.5315 114.992 51.7817 114.992 35.5547C82.4356 35.5547 49.8791 35.5547 16.3359 35.5547C16.3359 51.0931 16.3359 66.6314 16.3359 82.6406C15.375 84.2422 15.375 84.2422 14.7344 84.5625C12.4126 84.7497 12.4126 84.7497 11.5 84.04C10.7096 83.0559 10.7296 82.5087 10.7279 81.2553C10.7243 80.8385 10.7207 80.4218 10.717 79.9924C10.7195 79.5312 10.7221 79.07 10.7248 78.6087C10.7231 78.1225 10.7208 77.6363 10.718 77.1501C10.7122 75.8297 10.7145 74.5095 10.7185 73.1892C10.7218 71.8071 10.7188 70.4251 10.7167 69.043C10.7144 66.7214 10.7175 64.3997 10.7236 62.0781C10.7306 59.3954 10.7283 56.7128 10.7212 54.0301C10.7154 51.7263 10.7146 49.4225 10.718 47.1186C10.72 45.7429 10.7202 44.3672 10.716 42.9915C10.7123 41.6974 10.7149 40.4035 10.7223 39.1094C10.724 38.635 10.7235 38.1606 10.7206 37.6862C10.7171 37.0376 10.7223 36.3888 10.7279 35.7402C10.7284 35.3775 10.7289 35.0148 10.7294 34.6411C10.9878 33.0252 11.8061 32.0332 13.0127 30.9702C14.1382 30.1705 14.7132 30.0689 16.0824 30.0664ZM120.438 46.4453C120.438 48.2423 120.438 50.0392 120.438 51.8906C128.577 51.8906 136.716 51.8906 145.102 51.8906C144.659 49.6792 144.659 49.6792 143.56 48.0869C143.329 47.8206 143.329 47.8206 143.093 47.5489C141.807 46.4749 140.503 46.3662 138.874 46.3726C138.464 46.3726 138.053 46.3727 137.631 46.3727C137.186 46.376 136.741 46.3794 136.297 46.3828C135.839 46.384 135.382 46.3849 134.925 46.3855C133.725 46.3879 132.525 46.3942 131.325 46.4013C130.098 46.4079 128.872 46.4108 127.646 46.414C125.243 46.4209 122.84 46.4322 120.438 46.4453ZM120.438 57.3359C120.438 62.7268 120.438 68.1177 120.438 73.6719C129.211 73.6719 137.984 73.6719 147.023 73.6719C146.396 71.0954 145.768 68.5189 145.122 65.8643C144.924 65.0507 144.726 64.2371 144.522 63.3989C144.366 62.7567 144.209 62.1146 144.052 61.4725C143.97 61.1369 143.889 60.8013 143.805 60.4555C143.688 59.9776 143.688 59.9776 143.569 59.4901C143.501 59.2127 143.434 58.9353 143.364 58.6495C143.2 57.9655 143.2 57.9655 142.859 57.3359C135.46 57.3359 128.061 57.3359 120.438 57.3359ZM153.109 90.3281C152.914 92.92 152.914 92.92 154.07 95.1328C155.083 95.7678 155.849 95.8446 157.033 95.8135C157.535 95.8003 158.037 95.7871 158.555 95.7734C158.555 93.9765 158.555 92.1795 158.555 90.3281C156.758 90.3281 154.961 90.3281 153.109 90.3281ZM38.1172 110.188C35.796 113.331 35.227 116.242 35.5547 120.117C35.8305 121.199 36.2421 122.059 36.8359 123C37.0341 123.329 37.0341 123.329 37.2363 123.664C38.8116 126.014 41.1441 127.723 43.8828 128.445C47.7411 128.814 50.8292 128.251 53.8713 125.805C56.1837 123.567 57.3487 120.779 57.4761 117.595C57.3666 114.276 56.2266 111.971 53.9301 109.599C51.437 107.32 48.9013 106.494 45.5232 106.565C42.6431 106.85 40.133 108.121 38.1172 110.188ZM128.125 110.828C125.99 113.59 125.579 116.354 125.883 119.797C126.611 122.816 128.429 125.325 130.972 127.083C133.704 128.704 136.743 128.827 139.843 128.306C142.675 127.508 144.814 125.556 146.313 123.075C146.442 122.839 146.57 122.603 146.703 122.359C146.812 122.163 146.921 121.966 147.033 121.764C148.101 119.451 148.008 116.697 147.405 114.27C146.16 110.898 143.928 108.761 140.701 107.265C135.902 105.408 131.444 107.191 128.125 110.828Z" fill="#FDB235"/>
<path d="M88.7266 54.7735C89.6959 55.4197 89.9471 55.8802 90.3281 56.9756C90.3281 58.9681 88.6805 60.3393 87.3497 61.6789C87.1277 61.8991 86.9057 62.1193 86.6769 62.3462C86.322 62.702 86.322 62.702 85.9599 63.065C85.1812 63.845 84.4002 64.6225 83.6191 65.4001C83.0765 65.9422 82.5341 66.4845 81.9918 67.0269C80.8571 68.1611 79.7213 69.2943 78.5846 70.4266C77.1252 71.8805 75.668 73.3366 74.2114 74.7934C73.0926 75.9121 71.973 77.03 70.8531 78.1476C70.3152 78.6844 69.7775 79.2215 69.2401 79.7587C68.4909 80.5072 67.7407 81.2546 66.9902 82.0017C66.7669 82.2251 66.5436 82.4486 66.3135 82.6788C66.0077 82.9826 66.0077 82.9826 65.6957 83.2924C65.5185 83.4692 65.3412 83.6459 65.1586 83.828C64.2704 84.6358 63.3889 84.7298 62.2026 84.7124C61.331 84.5264 60.9597 84.2076 60.3074 83.605C60.085 83.4007 59.8626 83.1963 59.6335 82.9858C58.4473 81.8516 57.2761 80.7046 56.1172 79.5426C55.8593 79.285 55.6014 79.0274 55.3357 78.762C54.7954 78.2219 54.2554 77.6813 53.7158 77.1404C52.8884 76.3113 52.0593 75.4839 51.23 74.6566C50.7035 74.1299 50.1772 73.6032 49.6509 73.0763C49.403 72.8291 49.1552 72.5818 48.8997 72.3271C48.6708 72.0971 48.4418 71.8671 48.2059 71.6302C47.9039 71.3277 47.9039 71.3277 47.5957 71.0192C46.7918 70.1512 46.4588 69.6122 46.3052 68.4268C46.4453 67.2656 46.4453 67.2656 47.106 66.3247C48.0469 65.6641 48.0469 65.6641 49.1079 65.4238C50.3306 65.6725 50.6128 65.8516 51.4971 66.6551C51.8334 66.9603 51.8334 66.9603 52.1765 67.2716C53.2048 68.2384 54.21 69.2251 55.2039 70.2273C55.4135 70.4374 55.6232 70.6475 55.8392 70.864C56.499 71.5256 57.1577 72.1883 57.8164 72.8511C58.2676 73.3039 58.7189 73.7566 59.1702 74.2093C60.268 75.3106 61.3647 76.4128 62.4609 77.5156C63.3642 77.1043 64.0202 76.6763 64.7189 75.9732C64.903 75.7895 65.0871 75.6059 65.2768 75.4166C65.4748 75.2157 65.6729 75.0149 65.8769 74.8079C66.1943 74.4899 66.1943 74.4899 66.5181 74.1654C67.2167 73.4648 67.913 72.7619 68.6094 72.0591C69.0942 71.5722 69.5792 71.0856 70.0644 70.5991C71.3409 69.3183 72.6156 68.0358 73.8898 66.7527C75.9313 64.6974 77.975 62.6442 80.0197 60.5921C80.7348 59.8736 81.4489 59.1541 82.1628 58.4345C82.599 57.9961 83.0353 57.5577 83.4716 57.1194C83.6709 56.9179 83.8703 56.7164 84.0757 56.5088C85.594 54.9864 86.541 54.4662 88.7266 54.7735Z" fill="#FDB235"/>
<path d="M71.1269 101.017C71.5182 101.014 71.9095 101.012 72.3127 101.01C73.3836 101.005 74.4541 101.008 75.525 101.014C76.6469 101.019 77.7687 101.017 78.8906 101.015C80.7744 101.014 82.6581 101.019 84.5418 101.028C86.7182 101.038 88.8944 101.038 91.0707 101.032C93.1664 101.027 95.2619 101.029 97.3575 101.035C98.2484 101.037 99.1393 101.037 100.03 101.034C101.275 101.031 102.519 101.039 103.764 101.048C104.133 101.046 104.502 101.044 104.882 101.042C107.375 101.071 107.375 101.071 108.654 101.826C109.307 102.595 109.444 102.941 109.427 103.941C109.431 104.183 109.435 104.424 109.439 104.672C109.102 105.799 108.643 106.063 107.625 106.664C106.339 106.86 105.062 106.842 103.764 106.835C103.372 106.838 102.981 106.84 102.578 106.843C101.507 106.849 100.436 106.85 99.3656 106.847C98.4709 106.845 97.5762 106.847 96.6814 106.85C94.5705 106.855 92.4597 106.854 90.3488 106.849C88.1724 106.843 85.9962 106.848 83.8199 106.859C81.9496 106.867 80.0794 106.87 78.2092 106.867C77.0929 106.865 75.9767 106.866 74.8604 106.873C73.6158 106.88 72.3715 106.873 71.1269 106.866C70.5732 106.872 70.5732 106.872 70.0084 106.878C67.5202 106.848 67.5202 106.848 66.236 105.921C65.4753 104.779 65.4237 104.166 65.6641 102.82C67.0568 100.73 68.8454 100.993 71.1269 101.017Z" fill="#FDB235"/>
<path d="M10.1155 90.1624C10.4604 90.1601 10.8053 90.1579 11.1607 90.1555C12.302 90.1499 13.443 90.1536 14.5842 90.158C15.3765 90.1571 16.1687 90.1559 16.961 90.1543C18.6218 90.1524 20.2826 90.1551 21.9434 90.1611C24.0741 90.1684 26.2045 90.1642 28.3351 90.1565C29.9712 90.1519 31.6072 90.1534 33.2433 90.1567C34.029 90.1575 34.8147 90.1565 35.6004 90.1535C36.6978 90.1503 37.7949 90.1552 38.8923 90.1624C39.2182 90.1598 39.544 90.1572 39.8797 90.1545C42.0786 90.1811 42.0786 90.1811 43.1231 90.9391C43.7355 91.8732 43.7428 92.474 43.6901 93.5625C43.4956 94.4915 43.0292 94.9032 42.2813 95.4531C41.5362 95.8257 41.1029 95.8153 40.2732 95.8184C39.8428 95.8212 39.8428 95.8212 39.4037 95.824C38.9302 95.8245 38.9302 95.8245 38.4471 95.8251C38.1153 95.8267 37.7835 95.8282 37.4416 95.8299C36.3401 95.8346 35.2386 95.8367 34.1371 95.8385C33.3734 95.8404 32.6097 95.8422 31.8461 95.844C30.2431 95.8474 28.6401 95.8493 27.0371 95.8504C24.9819 95.8522 22.9268 95.8599 20.8716 95.869C19.2935 95.8749 17.7155 95.8766 16.1373 95.8771C15.3796 95.8781 14.6219 95.8806 13.8642 95.8848C12.8045 95.8903 11.7448 95.8897 10.685 95.8876C10.3713 95.8906 10.0576 95.8935 9.73438 95.8966C8.15966 95.8869 7.02884 95.8697 5.76563 94.8125C5.26443 93.8101 5.22205 92.695 5.44531 91.6094C6.58417 89.8602 8.2349 90.1474 10.1155 90.1624Z" fill="#FDB235"/>
<path d="M139.396 112.59C140.821 113.394 141.649 114.423 142.219 115.953C142.5 117.545 142.434 118.951 141.678 120.397C140.725 121.686 139.903 122.491 138.375 123C136.576 123.192 134.958 123.2 133.423 122.163C132.272 121.126 131.49 119.971 131.185 118.439C131.093 116.65 131.542 115.154 132.609 113.711C134.689 112.056 136.916 111.523 139.396 112.59Z" fill="#FDB235"/>
<path d="M48.7275 112.45C50.1749 113.425 51.3334 114.602 51.8906 116.273C52.063 118.308 51.7758 119.701 50.6094 121.398C49.0352 122.896 47.7447 123.098 45.6445 123.068C44.038 122.932 43.0536 122.257 42.021 121.078C40.8313 119.447 40.7886 117.913 41 115.953C41.565 114.242 42.6477 113.29 44.2031 112.43C45.7837 111.903 47.1705 111.92 48.7275 112.45Z" fill="#FDB235"/>
</g>
<defs>
<clipPath id="clip0_2043_501">
<rect width="164" height="164" fill="white"/>
</clipPath>
</defs>
</svg>
