<svg width="131" height="131" viewBox="0 0 131 131" fill="none" xmlns="http://www.w3.org/2000/svg">
<g clip-path="url(#clip0_2043_491)">
<path d="M70.1526 2.51738C70.3661 2.51611 70.5797 2.51484 70.7997 2.51353C71.5071 2.50979 72.2145 2.50805 72.922 2.50664C73.4144 2.50517 73.9069 2.50369 74.3993 2.50222C75.4331 2.49953 76.4668 2.49804 77.5005 2.49714C78.821 2.49574 80.1416 2.4896 81.4621 2.48231C82.4802 2.47753 83.4982 2.47621 84.5163 2.47582C85.0029 2.47505 85.4894 2.47301 85.976 2.46963C86.6593 2.46524 87.3425 2.46576 88.0258 2.46741C88.2245 2.46505 88.4231 2.4627 88.6278 2.46027C91.2759 2.48019 93.204 3.48185 95.1008 5.26912C96.8788 7.15857 97.3808 9.24641 97.3476 11.7945C97.2435 14.1782 96.3286 16.1983 94.668 17.9102C93.3748 18.9758 92.518 19.4199 90.8301 19.7012C90.9146 21.812 90.999 23.9229 91.086 26.0977C92.4079 26.4539 92.4079 26.4539 93.7565 26.8173C101.775 29.1005 109.022 33.2378 115.014 39.0372C115.408 39.4168 115.806 39.7907 116.204 40.1649C124.631 48.2037 130.69 60.7337 131.045 72.4511C131.052 72.8306 131.057 73.2101 131.061 73.5896C131.064 73.7958 131.066 74.0021 131.069 74.2146C131.171 84.7847 129.587 97.3431 122.301 105.67C121.511 106.14 121.051 106.182 120.126 106.166C119.015 105.868 118.604 105.596 117.951 104.646C117.622 102.862 118.197 101.624 119.119 100.137C119.356 99.7318 119.592 99.326 119.827 98.9196C119.944 98.72 120.06 98.5204 120.181 98.3147C123.89 91.8203 125.49 84.2595 125.451 76.8378C125.451 76.6478 125.45 76.4578 125.449 76.262C125.4 65.6184 121.714 54.8734 114.625 46.8223C114.435 46.6046 114.246 46.3869 114.05 46.1626C113.483 45.5213 112.906 44.8904 112.322 44.2637C112.147 44.0747 111.972 43.8857 111.792 43.691C103.415 34.974 91.2181 30.6401 79.3165 30.3513C67.3703 30.6528 56.3894 34.9056 47.5899 42.9844C47.4581 43.1046 47.3263 43.2248 47.1905 43.3487C39.149 50.7732 33.6855 62.284 33.2066 73.2498C33.0598 77.5832 33.0034 81.9898 34.0294 86.2246C34.0802 86.4437 34.131 86.6628 34.1834 86.8885C36.0876 94.9417 39.8349 102.222 45.543 108.229C45.854 108.589 46.1633 108.952 46.4705 109.316C47.3627 110.336 48.331 111.211 49.3809 112.066C49.6233 112.264 49.8657 112.462 50.1155 112.666C59.767 120.39 72.1742 123.846 84.4357 122.684C91.6787 121.859 98.3873 119.321 104.609 115.565C105.55 115.064 105.973 115.007 106.983 115.206C107.897 115.563 108.258 116.098 108.74 116.928C108.957 117.91 108.903 118.704 108.372 119.584C107.454 120.523 106.412 121.104 105.27 121.741C105.031 121.875 104.793 122.01 104.547 122.148C100.027 124.642 95.1861 126.395 90.1425 127.482C89.9638 127.521 89.785 127.559 89.6008 127.599C86.2502 128.275 82.9043 128.547 79.4924 128.537C79.306 128.537 79.1196 128.537 78.9275 128.537C64.7895 128.489 51.7874 122.657 41.8483 112.721C38.1888 108.989 30.959 100.759 30.959 95.1797C30.6075 95.1823 30.6075 95.1823 30.2489 95.1849C28.0391 95.2002 25.8293 95.2119 23.6194 95.2195C22.4833 95.2235 21.3473 95.2289 20.2113 95.2376C19.1147 95.246 18.0181 95.2505 16.9215 95.2525C16.5034 95.254 16.0853 95.2567 15.6671 95.2609C15.0809 95.2664 14.4949 95.2672 13.9087 95.2668C13.5752 95.2685 13.2417 95.2702 12.8981 95.272C11.9591 95.1727 11.489 94.9838 10.7462 94.4121C10.0607 93.3839 10.0563 92.5504 10.2344 91.3418C10.6934 90.6074 10.9976 90.1927 11.7696 89.8067C12.3209 89.7832 12.873 89.7766 13.4248 89.7776C13.6795 89.7776 13.6795 89.7776 13.9393 89.7775C14.5013 89.7777 15.0634 89.7797 15.6255 89.7817C16.0148 89.7822 16.4042 89.7825 16.7935 89.7828C17.819 89.7837 18.8445 89.7863 19.87 89.7891C20.9161 89.7917 21.9623 89.7929 23.0084 89.7942C25.0616 89.7969 27.1148 89.8013 29.168 89.8067C29.1154 89.6016 29.0628 89.3966 29.0087 89.1853C28.9396 88.9133 28.8706 88.6412 28.7994 88.3609C28.731 88.0925 28.6626 87.8241 28.5921 87.5476C28.31 86.3534 28.1319 85.1532 27.9687 83.9379C27.9355 83.7062 27.9024 83.4745 27.8682 83.2358C27.7206 82.1723 27.6264 81.1587 27.6329 80.084C27.4786 80.0868 27.3244 80.0897 27.1655 80.0926C25.5593 80.1209 23.9531 80.1402 22.3467 80.1543C21.7473 80.1607 21.148 80.1694 20.5487 80.1805C19.6868 80.196 18.8252 80.2033 17.9632 80.2089C17.5617 80.2188 17.5617 80.2188 17.1522 80.2289C15.2896 80.2297 15.2896 80.2297 14.2875 79.4765C13.7786 78.7507 13.6428 78.4024 13.6566 77.5254C13.6533 77.3143 13.65 77.1032 13.6466 76.8858C13.9061 75.9088 14.2853 75.5759 15.0958 74.9668C16.0526 74.7885 16.9928 74.8179 17.9632 74.8419C18.3779 74.8446 18.3779 74.8446 18.801 74.8474C19.6822 74.8545 20.5631 74.8706 21.4443 74.8869C22.0424 74.8933 22.6406 74.8991 23.2388 74.9044C24.7036 74.9184 26.1682 74.9398 27.6329 74.9668C27.631 74.7618 27.6292 74.5567 27.6273 74.3455C27.6259 74.0734 27.6244 73.8013 27.6229 73.521C27.6211 73.2527 27.6193 72.9843 27.6174 72.7078C27.6407 71.4871 27.8107 70.3023 28.0007 69.098C28.0524 68.7505 28.0524 68.7505 28.1051 68.3959C28.2643 67.339 28.4447 66.2919 28.6563 65.2442C28.3194 65.2464 27.9824 65.2487 27.6353 65.251C24.4616 65.2718 21.2879 65.2871 18.1141 65.2972C16.4824 65.3025 14.8508 65.3098 13.2191 65.3214C11.6447 65.3325 10.0704 65.3386 8.49604 65.3413C7.89508 65.3431 7.29413 65.3468 6.69319 65.3524C5.85209 65.3598 5.01121 65.3608 4.17008 65.3603C3.92108 65.364 3.67207 65.3677 3.41552 65.3715C2.31124 65.3647 1.70381 65.3483 0.746882 64.7572C-0.0760585 63.858 -0.0995125 63.1682 -0.0918911 61.9849C0.0539343 61.0672 0.563527 60.6724 1.27936 60.127C1.88949 59.8219 2.25961 59.8396 2.94051 59.8403C3.18233 59.84 3.42416 59.8396 3.67331 59.8393C4.07248 59.8407 4.07248 59.8407 4.47972 59.8421C4.7593 59.842 5.03887 59.842 5.32692 59.8419C6.25449 59.8421 7.18204 59.8441 8.1096 59.8461C8.75135 59.8466 9.3931 59.847 10.0348 59.8472C11.5535 59.8481 13.0722 59.8501 14.5909 59.8527C16.4893 59.8558 18.3876 59.8572 20.2859 59.8586C23.673 59.8614 27.0602 59.8657 30.4473 59.8711C30.5048 59.508 30.5048 59.508 30.5635 59.1376C30.6833 58.4498 30.8314 57.9269 31.113 57.2955C31.1964 57.1077 31.2798 56.9199 31.3658 56.7263C31.4532 56.5345 31.5406 56.3428 31.6307 56.1452C31.7121 55.9603 31.7936 55.7754 31.8775 55.585C32.6749 53.8101 33.6061 52.1094 34.5411 50.4043C34.2682 50.4069 34.2682 50.4069 33.9897 50.4095C32.2696 50.4249 30.5495 50.4366 28.8292 50.4441C27.945 50.4481 27.0608 50.4535 26.1766 50.4622C25.1585 50.4722 24.1405 50.4759 23.1224 50.4793C22.6493 50.4852 22.6493 50.4852 22.1667 50.4913C20.5599 50.4916 19.3067 50.4724 17.9102 49.6367C17.2248 48.6085 17.2204 47.775 17.3985 46.5664C17.8575 45.832 18.1616 45.4173 18.9337 45.0313C19.5356 45.0147 20.1381 45.0153 20.7402 45.0234C21.1259 45.0275 21.5116 45.0315 21.8973 45.0355C22.1023 45.0379 22.3073 45.0403 22.5186 45.0429C23.8331 45.056 25.1478 45.0546 26.4624 45.056C27.617 45.0581 28.771 45.0652 29.9254 45.083C31.0427 45.0999 32.1593 45.1031 33.2767 45.097C33.7011 45.0972 34.1256 45.1023 34.5499 45.1125C36.9956 45.209 36.9956 45.209 39.129 44.1682C39.7107 43.4586 40.1933 42.7364 40.6817 41.961C47.8052 33.8945 57.2122 28.7647 67.5469 26.0977C67.5469 24.0713 67.5469 22.0449 67.5469 19.957C67.0826 19.7512 66.6182 19.5454 66.1397 19.3334C63.8077 18.1591 62.4738 16.6084 61.5832 14.1642C60.8962 11.8198 61.0298 9.54608 62.0779 7.32399C63.8347 4.16435 66.5314 2.52252 70.1526 2.51738ZM67.0832 9.43483C66.5969 10.305 66.4427 11.0296 66.6085 12.0224C66.9689 13.2573 67.5255 13.935 68.6261 14.5803C70.2551 15.1743 72.0808 15.0101 73.7935 14.9918C74.2286 14.9913 74.6637 14.9914 75.0988 14.9918C76.0077 14.9914 76.9164 14.9866 77.8253 14.9785C78.9879 14.9684 80.1503 14.9673 81.3129 14.9692C82.2103 14.97 83.1076 14.9669 84.0049 14.9625C84.4335 14.9607 84.8622 14.9599 85.2908 14.9601C85.8902 14.9597 86.4894 14.9542 87.0888 14.9473C87.352 14.9484 87.352 14.9484 87.6206 14.9496C89.1848 14.922 90.1669 14.4442 91.3099 13.4007C92.0053 12.2961 92.0998 11.5068 91.8536 10.2344C91.2773 9.08188 90.7052 8.48416 89.5508 7.93166C88.864 7.85765 88.237 7.82399 87.551 7.82828C87.255 7.82564 87.255 7.82564 86.9529 7.82296C86.3027 7.81829 85.6526 7.81926 85.0023 7.82072C84.5489 7.81955 84.0955 7.81819 83.6421 7.81665C82.6925 7.81437 81.743 7.81499 80.7935 7.81753C79.5783 7.82047 78.3634 7.8153 77.1483 7.80783C76.2121 7.80313 75.276 7.80321 74.3398 7.80467C73.8919 7.80471 73.4439 7.80316 72.996 7.79999C72.3689 7.79617 71.7421 7.79891 71.115 7.80329C70.8392 7.79958 70.8392 7.79958 70.5579 7.79579C69.0413 7.81792 68.1215 8.36068 67.0832 9.43483ZM73.1758 20.2129C73.1758 21.9016 73.1758 23.5903 73.1758 25.3301C73.7669 25.2879 74.3579 25.2457 74.9669 25.2022C78.4818 24.9742 81.9471 25.0794 85.4571 25.3301C85.4571 23.6414 85.4571 21.9528 85.4571 20.2129C81.4043 20.2129 77.3515 20.2129 73.1758 20.2129Z" fill="#FDB235"/>
<path d="M105.158 46.3106C105.37 46.4913 105.582 46.6721 105.8 46.8583C114.184 54.1652 118.437 64.2601 119.23 75.2227C119.291 76.1715 119.287 77.0881 119.23 78.0371C119.215 78.3102 119.215 78.3102 119.199 78.5887C118.588 88.3113 114.954 97.0518 108.229 104.135C108.107 104.264 107.986 104.394 107.861 104.528C105.86 106.655 103.777 108.44 101.32 110.02C101.155 110.127 100.991 110.234 100.821 110.344C94.39 114.473 87.0846 116.534 79.4603 116.512C79.27 116.512 79.0796 116.512 78.8834 116.511C67.891 116.469 58.0425 111.939 50.3207 104.176C43.0623 96.6604 39.2977 86.5237 39.3858 76.1155C39.675 64.9877 44.2308 55.2133 52.1034 47.434C66.5526 33.8297 90.1917 33.1624 105.158 46.3106ZM53.1522 54.1288C47.5337 60.5845 44.3305 69.4707 44.7754 78.0371C45.4023 86.8438 48.6832 94.3759 54.7539 100.809C54.9261 100.997 55.0982 101.186 55.2756 101.38C59.5438 105.888 65.2101 108.647 71.1289 110.275C71.3059 110.325 71.4829 110.374 71.6652 110.424C76.5764 111.71 82.6162 111.633 87.5039 110.275C87.7089 110.219 87.914 110.163 88.1252 110.105C94.0508 108.416 98.8942 105.542 103.367 101.32C103.556 101.148 103.744 100.976 103.939 100.799C110.102 94.9636 113.469 86.4225 113.857 78.0371C113.868 77.8435 113.879 77.6499 113.889 77.4505C114.146 68.1448 110.323 59.3671 104.044 52.6356C97.7489 46.063 89.0167 42.3746 79.9541 42.1264C69.6396 42.0375 60.0378 46.5085 53.1522 54.1288Z" fill="#FDB235"/>
<path d="M98.25 56.0332C99.0703 56.5193 99.6314 56.8864 99.9641 57.8082C100.181 59.0383 99.9741 59.5901 99.2734 60.6387C98.8793 61.0531 98.4701 61.4534 98.0508 61.8423C97.8008 62.0763 97.5508 62.3104 97.3009 62.5445C97.1693 62.6669 97.0378 62.7893 96.9022 62.9154C96.2003 63.5718 95.5086 64.2388 94.8154 64.9043C93.9362 65.7483 93.0544 66.5886 92.1585 67.415C91.4318 68.0859 90.7179 68.7684 90.0109 69.46C89.7412 69.7194 89.4673 69.9745 89.1891 70.2247C87.6407 71.5841 87.6407 71.5841 86.9381 73.4506C86.9671 74.412 87.1232 75.3235 87.3252 76.2619C87.6642 78.1736 87.1373 79.8756 86.0487 81.4592C84.5148 83.2811 82.6622 84.5388 80.2719 84.7704C77.6538 84.8583 75.787 84.3977 73.7355 82.7545C72.0974 81.1919 71.2565 79.2109 71.1046 76.9607C71.1289 76.2461 71.1289 76.2461 71.3365 75.4956C71.5852 74.5834 71.7028 73.8663 71.6406 72.9199C70.907 71.7175 69.9227 70.8475 68.8741 69.9296C68.6019 69.6788 68.3306 69.4271 68.0601 69.1745C67.5668 68.7142 67.0693 68.2622 66.5656 67.8131C65.8151 67.1057 65.7038 66.6794 65.6599 65.6759C65.6734 64.7474 65.7338 64.5087 66.2836 63.709C67.1885 63.0929 67.7325 62.9414 68.8262 62.9414C70.0164 63.4268 70.7497 64.0286 71.6056 64.9773C71.9463 65.3407 71.9463 65.3407 72.2938 65.7114C72.6492 66.0937 73.0018 66.4777 73.3494 66.8672C74.618 68.4202 74.618 68.4202 76.3734 69.1326C76.9623 68.9964 77.4815 68.8054 78.0371 68.5703C78.7407 68.5024 78.7407 68.5024 79.3164 68.5064C79.5064 68.505 79.6964 68.5037 79.8921 68.5024C80.5957 68.5703 80.5957 68.5703 81.0651 68.7829C81.7349 69.0479 82.176 69.1385 82.8984 69.082C84.0332 68.3546 84.9123 67.3829 85.8298 66.4075C86.1045 66.1263 86.3799 65.8457 86.6559 65.5657C87.3798 64.8282 88.0951 64.0828 88.8086 63.3353C89.6765 62.4287 90.5533 61.5308 91.4298 60.6325C92.1118 59.9336 92.7921 59.2332 93.4672 58.5275C93.7131 58.2724 93.9591 58.0172 94.205 57.762C94.4185 57.5389 94.632 57.3158 94.852 57.0859C95.9359 56.0811 96.7664 55.8542 98.25 56.0332ZM77.0776 75.0628C76.6264 75.6493 76.5357 76.0148 76.502 76.7578C76.7943 77.6503 77.0826 78.3342 77.7013 79.0446C78.5806 79.4486 79.4018 79.4805 80.3398 79.3164C81.2994 78.7949 81.5647 78.4231 81.9869 77.4135C82.1424 76.4288 82.1217 76.0679 81.6191 75.2227C81.0239 74.4291 80.6839 74.2233 79.7162 73.9594C78.4966 73.938 78.0025 74.3361 77.0776 75.0628Z" fill="#FDB235"/>
<path d="M80.5958 46.8223C81.3938 47.4815 81.8029 47.8852 82.1309 48.8691C82.3817 52.4821 82.3817 52.4821 81.3633 53.7305C80.3443 54.3576 79.8175 54.5355 78.6288 54.3541C77.7216 53.9604 77.3382 53.7565 76.7579 52.9629C76.5994 52.1557 76.6034 51.3686 76.6139 50.5482C76.6078 50.3317 76.6017 50.1152 76.5955 49.8921C76.5981 48.7515 76.6414 48.2522 77.3585 47.325C78.4986 46.4804 79.2379 46.4945 80.5958 46.8223Z" fill="#FDB235"/>
<path d="M80.3399 99.0176C81.0588 99.4765 81.4936 99.79 81.875 100.553C81.9205 101.308 81.946 102.052 81.955 102.808C81.9624 103.014 81.9698 103.221 81.9775 103.434C81.9886 104.484 81.9625 105.019 81.3903 105.929C80.5681 106.705 79.9665 106.796 78.8317 106.783C77.8587 106.621 77.4228 106.128 76.7578 105.414C76.4567 104.578 76.4596 103.754 76.454 102.871C76.4504 102.611 76.4467 102.35 76.443 102.081C76.5295 100.966 76.8014 100.272 77.5574 99.4494C78.5144 98.8877 79.2545 98.794 80.3399 99.0176Z" fill="#FDB235"/>
<path d="M53.0429 73.8794C53.3796 73.8728 53.7164 73.8662 54.0633 73.8594C55.3098 73.9699 55.9619 74.3292 56.7688 75.2706C57.0993 76.0969 57.1022 76.6376 57.0337 77.5094C56.6588 78.3588 56.0621 78.8769 55.2657 79.3164C54.5269 79.4865 53.8299 79.4847 53.0749 79.4603C52.8851 79.4631 52.6953 79.4659 52.4997 79.4688C51.2324 79.4519 50.5546 79.2355 49.6368 78.2929C49.1925 77.4044 49.2269 76.4477 49.3809 75.4785C50.5011 74.0635 51.3212 73.8925 53.0429 73.8794Z" fill="#FDB235"/>
<path d="M108.005 74.2792C108.74 74.7109 108.74 74.7109 109.252 75.4785C109.441 76.6536 109.408 77.5317 108.772 78.5488C107.766 79.4957 106.782 79.3895 105.462 79.4124C105.152 79.4267 105.152 79.4267 104.836 79.4413C103.702 79.4581 103.258 79.4331 102.341 78.7027C101.598 77.7305 101.458 77.2182 101.576 75.9902C102.016 75.1434 102.321 74.5962 103.182 74.1602C104.7 73.6876 106.517 73.6855 108.005 74.2792Z" fill="#FDB235"/>
<path d="M114.881 108.74C116.298 109.527 116.298 109.527 116.672 110.275C116.78 111.058 116.796 111.797 116.672 112.578C116.114 113.283 115.681 113.713 114.881 114.113C113.75 114.244 113.216 114.188 112.226 113.602C111.5 112.771 111.311 112.352 111.255 111.28C111.343 110.287 111.847 109.735 112.514 109.044C113.358 108.599 113.939 108.627 114.881 108.74Z" fill="#FDB235"/>
<path d="M4.0938 90.0625C4.80957 90.6211 5.05337 91.0028 5.22118 91.8935C5.29672 93.0266 5.23257 93.4988 4.50957 94.4121C3.44297 95.2247 2.88685 95.2375 1.58618 95.0657C1.02349 94.9238 1.02349 94.9238 0.367846 94.4121C-0.134428 93.3639 -0.208937 92.484 4.84735e-05 91.3418C1.02034 89.653 2.30598 89.6042 4.0938 90.0625Z" fill="#FDB235"/>
</g>
<defs>
<clipPath id="clip0_2043_491">
<rect width="131" height="131" fill="white"/>
</clipPath>
</defs>
</svg>
